<svg width="250" height="250" viewBox="0 0 250 250" fill="none" xmlns="http://www.w3.org/2000/svg">
<path d="M57.2988 68.8076V160.551C57.2989 166.884 62.4298 172.019 68.7588 172.019H160.437C160.59 172.019 160.743 172.015 160.895 172.009V172.019H171.158L171.188 171.988H172.044L250 250H168.967L148.339 229.357H68.7588C30.7845 229.357 0.000105969 198.552 0 160.551V125.688L57.2988 68.3486H57.3086C57.3026 68.5007 57.2988 68.6541 57.2988 68.8076ZM160.437 0C198.411 1.47767e-06 229.195 30.8065 229.195 68.8076V103.67L171.896 161.01H171.887C171.893 160.858 171.896 160.704 171.896 160.551V68.8076C171.896 62.4742 166.765 57.3398 160.437 57.3398H68.7588C68.6053 57.3398 68.4519 57.3426 68.2998 57.3486V57.3398H57.2988L0 0H160.437Z" fill="white"/>
</svg>
