<svg width="1342" height="250" viewBox="0 0 1342 250" fill="none" xmlns="http://www.w3.org/2000/svg">
<path d="M57.2988 68.8076V160.551C57.2989 166.884 62.4298 172.019 68.7588 172.019H160.437C160.59 172.019 160.743 172.015 160.895 172.009V172.019H171.158L171.188 171.988H172.044L250 250H168.967L148.339 229.357H68.7588C30.7845 229.357 0.000105969 198.552 0 160.551V125.688L57.2988 68.3486H57.3086C57.3026 68.5007 57.2988 68.6541 57.2988 68.8076ZM160.437 0C198.411 1.47767e-06 229.195 30.8065 229.195 68.8076V103.67L171.896 161.01H171.887C171.893 160.858 171.896 160.704 171.896 160.551V68.8076C171.896 62.4742 166.765 57.3398 160.437 57.3398H68.7588C68.6053 57.3398 68.4519 57.3426 68.2998 57.3486V57.3398H57.2988L0 0H160.437Z" fill="white"/>
<path d="M398.3 168.2C367.1 168.2 344 143.3 344 111.95C344 80.6 367.1 56 398.3 56C429.5 56 452.75 80.6 452.75 111.95C452.75 134 441.2 152.9 423.5 162.05L441.65 193.25H429.8L413.75 166.1C408.95 167.45 403.7 168.2 398.3 168.2ZM398.3 158.15C423.8 158.15 441.05 137.75 441.05 111.95C441.05 86.15 423.8 66.05 398.3 66.05C372.95 66.05 355.55 86.15 355.55 111.95C355.55 137.75 372.95 158.15 398.3 158.15Z" fill="white"/>
<path d="M549.157 58.25V129.05C549.157 153.2 533.557 168.2 509.857 168.2C486.007 168.2 470.407 153.2 470.407 129.05V58.25H481.657V129.65C481.657 147.2 493.207 158.15 509.857 158.15C526.507 158.15 537.907 147.2 537.907 129.65V58.25H549.157Z" fill="white"/>
<path d="M584.349 165.95H573.099V58.25H584.349V165.95Z" fill="white"/>
<path d="M655.195 168.2C625.195 168.2 602.545 143.75 602.545 111.95C602.545 80.3 625.195 56 655.195 56C680.845 56 701.995 73.25 706.195 98.9H694.345C690.895 79.7 674.995 66.05 655.195 66.05C631.345 66.05 614.095 85.55 614.095 111.95C614.095 138.65 631.345 158.15 655.195 158.15C675.145 158.15 691.045 144.35 694.345 125.15H706.195C701.995 150.8 680.845 168.2 655.195 168.2Z" fill="white"/>
<path d="M735.668 165.95H724.418V58.25H735.668V110.15L786.668 58.25H799.718L747.218 111.95L801.218 165.95H786.668L735.668 115.4V165.95Z" fill="white"/>
<path d="M881.499 156.2V165.95H816.849V58.25H880.449V68H828.099V105.5H875.949V115.25H828.099V156.2H881.499Z" fill="white"/>
<path d="M975.746 165.95L912.896 74.15V165.95H902.396V58.25H914.846L977.096 148.85V58.25H987.746V165.95H975.746Z" fill="white"/>
<path d="M1060.41 168.2C1029.51 168.2 1005.96 144.5 1005.96 112.1C1005.96 80.3 1028.46 56 1059.66 56C1087.71 56 1106.01 73.55 1112.16 95.15H1099.41C1094.76 78.8 1081.11 66.05 1059.36 66.05C1034.61 66.05 1017.51 85.1 1017.51 112.25C1017.51 138.8 1034.76 158.45 1060.71 158.45C1084.11 158.45 1098.96 143.9 1101.81 121.25H1059.51V112.1H1113.51C1113.21 146.15 1092.21 168.2 1060.41 168.2Z" fill="white"/>
<path d="M1142.89 165.95H1131.64V58.25H1142.89V165.95Z" fill="white"/>
<path d="M1240.59 165.95L1177.74 74.15V165.95H1167.24V58.25H1179.69L1241.94 148.85V58.25H1252.59V165.95H1240.59Z" fill="white"/>
<path d="M1341.61 156.2V165.95H1276.96V58.25H1340.56V68H1288.21V105.5H1336.06V115.25H1288.21V156.2H1341.61Z" fill="white"/>
</svg>
