<svg width="215" height="215" viewBox="0 0 215 215" fill="none" xmlns="http://www.w3.org/2000/svg">
<path d="M47.6309 53.0713C47.5875 53.3729 47.5645 53.6815 47.5645 53.9951L47.5645 141.84C47.5645 145.39 50.4424 148.267 53.9922 148.268H141.838C142.336 148.268 142.821 148.211 143.287 148.104L143.123 148.268H148.329L148.449 148.388L148.57 148.269L203.418 203.116L203.42 203.115L214.562 214.258H153.959L135.105 195.404H59.9912C26.8588 195.404 0 168.545 0 135.412L0 101.025H0.00292969L0 101.021L0 100.703L47.6309 53.0713ZM47.5684 0.00292969L59.8359 0.00292969C59.8876 0.00279545 59.9395 0.00195348 59.9912 0.00195313L135.41 0.00195313C168.543 0.00215693 195.402 26.8616 195.402 59.9941V95.1924L195.34 95.1309L148.255 142.216C148.262 142.092 148.266 141.966 148.266 141.84V53.9951C148.266 50.4453 145.388 47.5676 141.838 47.5674H90.416V47.5684L53.9336 47.5684C53.6405 47.571 53.3518 47.5922 53.0693 47.6328L53.1348 47.5684H47.5645V47.5674H47.4385L47.4365 47.5654H47.5645V47.5635L0.000976562 0L47.5684 0V0.00292969Z" fill="white"/>
</svg>
