<svg width="552" height="553" viewBox="0 0 552 553" fill="none" xmlns="http://www.w3.org/2000/svg">
<title>QuickEngine</title>
<path d="M120.417 134.134C120.144 135.379 120 136.673 120 138V363C120 372.941 128.059 381 138 381H380.859L499.859 500H140C62.6801 500 0 437.32 0 360V254.552L120.417 134.134Z" fill="white"/>
<path d="M360 0C437.32 0 500 62.6801 500 140V260.141L381 379.141V138C381 128.059 372.941 120 363 120H138C136.625 120 135.286 120.154 134 120.446V120H1.41992C11.1246 52.1543 69.4707 0 140 0H360Z" fill="white"/>
<path d="M551.266 552.12L550.997 552.389V552H382.854L296 465.146L380.146 381L551.266 552.12Z" fill="white"/>
</svg>
